HIERARCHY
ROOT Hips
{
	OFFSET -0.001795 -0.223333 0.028219
	CHANNELS 6 Xposition Yposition Zposition Zrotation Yrotation Xrotation 
	JOINT LeftUpLeg
	{
		OFFSET 0.069520 -0.091406 -0.006815
		CHANNELS 3 Zrotation Yrotation Xrotation
		JOINT LeftLeg
		{
			OFFSET 0.034277 -0.375199 -0.004496
			CHANNELS 3 Zrotation Yrotation Xrotation
			JOINT LeftFoot
			{
				OFFSET -0.013596 -0.397961 -0.043693
				CHANNELS 3 Zrotation Yrotation Xrotation
				JOINT LeftToe
				{
					OFFSET 0.026358 -0.055791 0.119288
					CHANNELS 3 Zrotation Yrotation Xrotation
					End Site
					{
						OFFSET 0.000000 0.000000 0.000000
					}
				}
			}
		}
	}
	JOINT RightUpLeg
	{
		OFFSET -0.067670 -0.090522 -0.004320
		CHANNELS 3 Zrotation Yrotation Xrotation
		JOINT RightLeg
		{
			OFFSET -0.038290 -0.382569 -0.008850
			CHANNELS 3 Zrotation Yrotation Xrotation
			JOINT RightFoot
			{
				OFFSET 0.015774 -0.398415 -0.042312
				CHANNELS 3 Zrotation Yrotation Xrotation
				JOINT RightToe
				{
					OFFSET -0.025372 -0.048144 0.123348
					CHANNELS 3 Zrotation Yrotation Xrotation
					End Site
					{
						OFFSET 0.000000 0.000000 0.000000
					}
				}
			}
		}
	}
	JOINT Spine
	{
		OFFSET -0.002533 0.108963 -0.026696
		CHANNELS 3 Zrotation Yrotation Xrotation
		JOINT Spine1
		{
			OFFSET 0.005487 0.135180 0.001092
			CHANNELS 3 Zrotation Yrotation Xrotation
			JOINT Spine2
			{
				OFFSET 0.001457 0.052922 0.025425
				CHANNELS 3 Zrotation Yrotation Xrotation
				JOINT Neck
				{
					OFFSET -0.002778 0.213870 -0.042857
					CHANNELS 3 Zrotation Yrotation Xrotation
					JOINT Head
					{
						OFFSET 0.005152 0.064970 0.051349
						CHANNELS 3 Zrotation Yrotation Xrotation
						End Site
						{
							OFFSET 0.000000 0.000000 0.000000
						}
					}
				}
				JOINT LeftShoulder
				{
					OFFSET 0.078845 0.121749 -0.034090
					CHANNELS 3 Zrotation Yrotation Xrotation
					JOINT LeftArm
					{
						OFFSET 0.090977 0.030469 -0.008868
						CHANNELS 3 Zrotation Yrotation Xrotation
						JOINT LeftForeArm
						{
							OFFSET 0.259612 -0.012772 -0.027456
							CHANNELS 3 Zrotation Yrotation Xrotation
							JOINT LeftHand
							{
								OFFSET 0.249234 0.008986 -0.001171
								CHANNELS 3 Zrotation Yrotation Xrotation
								End Site
								{
									OFFSET 0.000000 0.000000 0.000000
								}
							}
						}
					}
				}
				JOINT RightShoulder
				{
					OFFSET -0.081759 0.118833 -0.038615
					CHANNELS 3 Zrotation Yrotation Xrotation
					JOINT RightArm
					{
						OFFSET -0.096012 0.032551 -0.009143
						CHANNELS 3 Zrotation Yrotation Xrotation
						JOINT RightForeArm
						{
							OFFSET -0.253742 -0.013329 -0.021401
							CHANNELS 3 Zrotation Yrotation Xrotation
							JOINT RightHand
							{
								OFFSET -0.255298 0.007772 -0.005559
								CHANNELS 3 Zrotation Yrotation Xrotation
								End Site
								{
									OFFSET 0.000000 0.000000 0.000000
								}
							}
						}
					}
				}
			}
		}
	}
}
MOTION
Frames: 10
Frame Time: 0.050000
0.000000 0.942164 0.000000 -0.181433 -3.120991 8.102817 5.465365 -0.329821 -4.219596 -0.009545 0.188421 -5.424985 2.100659 7.081716 9.495091 0.000000 0.000000 0.000000 -3.352996 0.494777 -4.664307 -2.359966 -0.041830 -4.531651 -0.252426 -4.885877 9.262625 0.000000 0.000000 0.000000 5.707840 0.369842 -6.099632 -2.431553 1.114944 -3.872441 -3.714166 5.395387 4.148525 7.300090 -3.425338 -12.472118 0.000000 0.000000 0.000000 -16.118172 -0.006191 -2.457348 -55.174981 -6.290653 -3.525576 -11.094815 -17.024024 2.133817 0.000000 0.000000 0.000000 14.447510 -5.880266 -3.484354 62.471832 7.630660 -1.674660 11.778232 18.992012 2.542720 0.000000 0.000000 0.000000 
0.000279 0.941443 0.000158 -0.380984 -3.811523 8.894513 5.417422 -0.327862 -4.088294 0.372022 0.196292 -6.217752 2.373232 7.401696 9.131874 0.000000 0.000000 0.000000 -2.983030 0.607386 -6.102839 -3.049062 0.031376 -3.943257 0.317682 -4.115478 9.992330 0.000000 0.000000 0.000000 6.655455 0.425134 -6.538230 -2.861360 1.287879 -4.081387 -4.480357 5.956207 3.448328 8.032969 -3.767339 -12.953920 0.000000 0.000000 0.000000 -17.076059 0.677692 -3.043606 -53.881364 -6.283692 -3.327360 -12.127831 -16.974819 2.259806 0.000000 0.000000 0.000000 14.033529 -7.006954 -3.968177 63.780137 7.122007 -1.809113 12.377494 18.669103 2.588124 0.000000 0.000000 0.000000 
0.000442 0.941355 0.000173 -0.073020 -3.637759 8.634185 4.993186 -0.345223 -4.405281 0.471131 0.135035 -4.873392 2.125222 6.667172 7.776352 0.000000 0.000000 0.000000 -3.041843 0.603825 -6.098389 -3.520433 0.055298 -4.043819 -0.184033 -5.097234 9.992578 0.000000 0.000000 0.000000 6.397535 0.390316 -6.215599 -2.615151 1.176302 -4.957734 -4.906668 5.795261 3.760355 7.705696 -3.803494 -11.672793 0.000000 0.000000 0.000000 -16.931493 0.051326 -2.695358 -53.962729 -5.641753 -3.662872 -11.575950 -16.453690 2.117601 0.000000 0.000000 0.000000 14.984789 -6.099344 -3.604904 62.808858 6.885586 -2.034558 12.297927 19.720900 2.749076 0.000000 0.000000 0.000000 
0.000552 0.941291 0.000249 0.009137 -3.574833 9.035023 5.368354 -0.355924 -4.640572 -0.181149 0.193834 -5.251247 1.929149 6.434742 8.246493 0.000000 0.000000 0.000000 -3.100274 0.633885 -6.459344 -3.632859 0.048253 -4.242076 -0.200936 -5.362018 10.641229 0.000000 0.000000 0.000000 6.482215 0.384448 -6.232070 -2.848132 1.276146 -4.727774 -4.770607 5.149233 2.450075 7.855175 -4.086881 -10.719706 0.000000 0.000000 0.000000 -17.022082 1.015107 -3.100847 -54.070162 -6.080706 -3.354529 -11.114293 -15.594916 1.950947 0.000000 0.000000 0.000000 14.122109 -6.384940 -3.781398 63.051523 6.589920 -2.039523 13.234653 19.663568 2.851771 0.000000 0.000000 0.000000 
0.000584 0.941716 0.000249 0.247030 -3.083706 8.993864 5.000856 -0.375880 -4.853533 0.021935 0.171207 -5.009584 1.751620 6.218244 8.459437 0.000000 0.000000 0.000000 -3.241336 0.624671 -6.375197 -3.965374 0.057268 -4.430651 -0.407527 -5.736603 10.740351 0.000000 0.000000 0.000000 6.162298 0.388168 -6.372172 -2.505425 1.139196 -4.538779 -5.084442 4.911733 2.245981 7.709988 -3.935013 -10.932558 0.000000 0.000000 0.000000 -16.927118 0.467335 -2.844678 -54.086123 -6.513816 -3.138176 -10.901498 -14.803099 1.820449 0.000000 0.000000 0.000000 13.976157 -6.569435 -3.840056 63.126567 6.533554 -2.034872 13.230883 19.664109 2.855080 0.000000 0.000000 0.000000 
0.000635 0.942084 0.000259 0.324338 -2.797543 9.089168 5.116278 -0.378820 -4.875445 -0.238413 0.186209 -4.940227 1.790900 6.316703 8.476202 0.000000 0.000000 0.000000 -3.154125 0.625196 -6.390008 -4.405759 0.077578 -4.524612 -0.528405 -6.120736 11.281693 0.000000 0.000000 0.000000 6.040630 0.391241 -6.467632 -2.333892 1.068717 -4.710529 -5.236563 4.804528 2.147413 8.065738 -4.245446 -10.496474 0.000000 0.000000 0.000000 -17.019129 0.592178 -2.945640 -53.926220 -6.485854 -3.122878 -10.490685 -14.786595 1.763316 0.000000 0.000000 0.000000 13.924634 -6.534514 -3.805073 63.315701 6.452259 -2.057015 12.995764 19.455792 2.783869 0.000000 0.000000 0.000000 
0.000662 0.942420 0.000204 0.470284 -2.444659 9.003611 4.957788 -0.389027 -4.988080 -0.198355 0.178129 -4.790750 1.632249 6.177038 8.881068 0.000000 0.000000 0.000000 -3.229348 0.617603 -6.322273 -4.456210 0.094867 -4.368273 -0.476651 -5.922828 11.134394 0.000000 0.000000 0.000000 5.918870 0.391996 -6.523891 -2.399774 1.101755 -4.434624 -5.272159 4.407506 1.958223 8.064107 -4.200120 -10.758739 0.000000 0.000000 0.000000 -16.996797 0.707476 -2.964586 -53.803329 -6.378986 -3.148676 -10.137045 -14.629118 1.704360 0.000000 0.000000 0.000000 13.821076 -6.486650 -3.802230 63.375908 6.121161 -2.225144 12.775202 19.217148 2.698951 0.000000 0.000000 0.000000 
0.000726 0.942655 0.000049 0.536679 -2.041415 9.082124 4.876464 -0.413820 -5.387158 -0.191713 0.164840 -4.420750 1.443660 5.783601 8.514567 0.000000 0.000000 0.000000 -3.244514 0.618945 -6.361304 -4.555572 0.107035 -4.320803 -0.608145 -6.051225 10.913643 0.000000 0.000000 0.000000 5.835155 0.388561 -6.567818 -2.356647 1.087657 -4.410338 -5.430668 4.335824 1.730494 8.145154 -4.319196 -10.323381 0.000000 0.000000 0.000000 -16.928778 0.748725 -3.019309 -53.524715 -6.218327 -3.175763 -9.666295 -14.607236 1.638144 0.000000 0.000000 0.000000 13.920137 -6.863239 -3.975219 63.315743 5.814360 -2.354641 12.391633 18.643597 2.552095 0.000000 0.000000 0.000000 
0.000757 0.942765 -0.000208 0.639613 -1.788484 9.061041 4.690617 -0.427772 -5.562139 -0.062040 0.146423 -4.156607 1.417641 5.712364 8.337089 0.000000 0.000000 0.000000 -3.324053 0.610606 -6.270786 -4.546704 0.096532 -4.467749 -0.599712 -5.999885 10.912888 0.000000 0.000000 0.000000 5.726198 0.385294 -6.580883 -2.417094 1.115379 -4.550935 -5.352364 4.133007 1.824331 8.027593 -4.255065 -10.288277 0.000000 0.000000 0.000000 -16.699150 0.975479 -3.069746 -53.466724 -6.129172 -3.229781 -9.373989 -14.363096 1.577883 0.000000 0.000000 0.000000 13.871127 -7.050634 -4.074038 63.084033 5.347732 -2.616091 12.206189 18.329917 2.472449 0.000000 0.000000 0.000000 
0.000733 0.942910 -0.000492 0.693691 -1.621727 9.151556 4.695001 -0.445196 -5.869107 -0.115861 0.141367 -3.893989 1.332807 5.543372 8.219044 0.000000 0.000000 0.000000 -3.394563 0.609217 -6.257116 -4.533718 0.065353 -4.865858 -0.615144 -6.111128 11.234752 0.000000 0.000000 0.000000 5.795793 0.399258 -6.751978 -2.486830 1.146666 -4.376820 -5.505449 4.234444 1.609018 8.072034 -4.263271 -10.286566 0.000000 0.000000 0.000000 -16.484879 0.973245 -3.084977 -53.304498 -6.295115 -3.124826 -8.931176 -13.881892 1.466506 0.000000 0.000000 0.000000 13.869673 -7.322309 -4.175799 62.997573 5.081768 -2.717483 11.916751 17.944141 2.376430 0.000000 0.000000 0.000000 
